<?xml version="1.0" encoding="iso-8859-1"?>
<!-- Generator: Adobe Illustrator 19.0.0, SVG Export Plug-In . SVG Version: 6.00 Build 0)  -->
<svg version="1.1" id="Layer_1" xmlns="http://www.w3.org/2000/svg" xmlns:xlink="http://www.w3.org/1999/xlink" x="0px" y="0px"
	 viewBox="0 0 512 512" style="enable-background:new 0 0 512 512;" xml:space="preserve">
<g transform="translate(1 1)">
	<g>
		<g>
			<path d="M417.133-1H92.867C68.973-1,50.2,17.773,50.2,41.667v426.667C50.2,492.227,68.973,511,92.867,511h324.267
				c23.893,0,42.667-18.773,42.667-42.667V41.667C459.8,17.773,441.027-1,417.133-1z M442.733,468.333
				c0,14.507-11.093,25.6-25.6,25.6H92.867c-14.507,0-25.6-11.093-25.6-25.6V41.667c0-14.507,11.093-25.6,25.6-25.6h324.267
				c14.507,0,25.6,11.093,25.6,25.6V468.333z"/>
			<path d="M374.467,41.667H135.533c-14.507,0-25.6,11.093-25.6,25.6v68.267c0,14.507,11.093,25.6,25.6,25.6h238.933
				c14.507,0,25.6-11.093,25.6-25.6V67.267C400.067,52.76,388.973,41.667,374.467,41.667z M383,135.533
				c0,5.12-3.413,8.533-8.533,8.533H135.533c-5.12,0-8.533-3.413-8.533-8.533V67.267c0-5.12,3.413-8.533,8.533-8.533h238.933
				c5.12,0,8.533,3.413,8.533,8.533V135.533z"/>
			<path d="M169.667,178.2h-34.133c-14.507,0-25.6,11.093-25.6,25.6v34.133c0,14.507,11.093,25.6,25.6,25.6h34.133
				c14.507,0,25.6-11.093,25.6-25.6V203.8C195.267,189.293,184.173,178.2,169.667,178.2z M178.2,237.933
				c0,5.12-3.413,8.533-8.533,8.533h-34.133c-5.12,0-8.533-3.413-8.533-8.533V203.8c0-5.12,3.413-8.533,8.533-8.533h34.133
				c5.12,0,8.533,3.413,8.533,8.533V237.933z"/>
			<path d="M272.067,178.2h-34.133c-14.507,0-25.6,11.093-25.6,25.6v34.133c0,14.507,11.093,25.6,25.6,25.6h34.133
				c14.507,0,25.6-11.093,25.6-25.6V203.8C297.667,189.293,286.573,178.2,272.067,178.2z M280.6,237.933
				c0,5.12-3.413,8.533-8.533,8.533h-34.133c-5.12,0-8.533-3.413-8.533-8.533V203.8c0-5.12,3.413-8.533,8.533-8.533h34.133
				c5.12,0,8.533,3.413,8.533,8.533V237.933z"/>
			<path d="M374.467,178.2h-34.133c-14.507,0-25.6,11.093-25.6,25.6v34.133c0,14.507,11.093,25.6,25.6,25.6h34.133
				c14.507,0,25.6-11.093,25.6-25.6V203.8C400.067,189.293,388.973,178.2,374.467,178.2z M383,237.933
				c0,5.12-3.413,8.533-8.533,8.533h-34.133c-5.12,0-8.533-3.413-8.533-8.533V203.8c0-5.12,3.413-8.533,8.533-8.533h34.133
				c5.12,0,8.533,3.413,8.533,8.533V237.933z"/>
			<path d="M169.667,280.6h-34.133c-14.507,0-25.6,11.093-25.6,25.6v34.133c0,14.507,11.093,25.6,25.6,25.6h34.133
				c14.507,0,25.6-11.093,25.6-25.6V306.2C195.267,291.693,184.173,280.6,169.667,280.6z M178.2,340.333
				c0,5.12-3.413,8.533-8.533,8.533h-34.133c-5.12,0-8.533-3.413-8.533-8.533V306.2c0-5.12,3.413-8.533,8.533-8.533h34.133
				c5.12,0,8.533,3.413,8.533,8.533V340.333z"/>
			<path d="M272.067,280.6h-34.133c-14.507,0-25.6,11.093-25.6,25.6v34.133c0,14.507,11.093,25.6,25.6,25.6h34.133
				c14.507,0,25.6-11.093,25.6-25.6V306.2C297.667,291.693,286.573,280.6,272.067,280.6z M280.6,340.333
				c0,5.12-3.413,8.533-8.533,8.533h-34.133c-5.12,0-8.533-3.413-8.533-8.533V306.2c0-5.12,3.413-8.533,8.533-8.533h34.133
				c5.12,0,8.533,3.413,8.533,8.533V340.333z"/>
			<path d="M169.667,383h-34.133c-14.507,0-25.6,11.093-25.6,25.6v34.133c0,14.507,11.093,25.6,25.6,25.6h34.133
				c14.507,0,25.6-11.093,25.6-25.6V408.6C195.267,394.093,184.173,383,169.667,383z M178.2,442.733c0,5.12-3.413,8.533-8.533,8.533
				h-34.133c-5.12,0-8.533-3.413-8.533-8.533V408.6c0-5.12,3.413-8.533,8.533-8.533h34.133c5.12,0,8.533,3.413,8.533,8.533V442.733z
				"/>
			<path d="M272.067,383h-34.133c-14.507,0-25.6,11.093-25.6,25.6v34.133c0,14.507,11.093,25.6,25.6,25.6h34.133
				c14.507,0,25.6-11.093,25.6-25.6V408.6C297.667,394.093,286.573,383,272.067,383z M280.6,442.733c0,5.12-3.413,8.533-8.533,8.533
				h-34.133c-5.12,0-8.533-3.413-8.533-8.533V408.6c0-5.12,3.413-8.533,8.533-8.533h34.133c5.12,0,8.533,3.413,8.533,8.533V442.733z
				"/>
			<path d="M374.467,280.6h-34.133c-14.507,0-25.6,11.093-25.6,25.6v136.533c0,14.507,11.093,25.6,25.6,25.6h34.133
				c14.507,0,25.6-11.093,25.6-25.6V306.2C400.067,291.693,388.973,280.6,374.467,280.6z M383,442.733
				c0,5.12-3.413,8.533-8.533,8.533h-34.133c-5.12,0-8.533-3.413-8.533-8.533V306.2c0-5.12,3.413-8.533,8.533-8.533h34.133
				c5.12,0,8.533,3.413,8.533,8.533V442.733z"/>
		</g>
	</g>
</g>
<g>
</g>
<g>
</g>
<g>
</g>
<g>
</g>
<g>
</g>
<g>
</g>
<g>
</g>
<g>
</g>
<g>
</g>
<g>
</g>
<g>
</g>
<g>
</g>
<g>
</g>
<g>
</g>
<g>
</g>
</svg>
